<svg>
    <path d="M2606 4961 c-4 -6 -11 -45 -16 -88 -5 -43 -16 -134 -24 -203 -21
-175 -56 -551 -56 -602 l0 -43 -357 0 c-261 0 -411 -5 -553 -18 -107 -10 -202
-20 -210 -22 -12 -4 -15 4 -12 43 12 201 65 618 98 775 22 108 21 113 -33 131
-38 13 -49 14 -59 4 -13 -15 -38 -136 -60 -295 -8 -60 -21 -151 -28 -203 -8
-52 -19 -160 -26 -240 -7 -80 -15 -165 -19 -190 -6 -45 -6 -45 -56 -53 -387
-63 -1026 -231 -1042 -273 -6 -16 15 -103 28 -118 4 -4 70 12 146 38 216 71
451 132 683 175 247 47 230 46 230 19 0 -13 -5 -167 -10 -343 -10 -331 -2
-849 21 -1308 13 -263 15 -257 -48 -257 -108 0 -595 -114 -879 -205 -193 -62
-185 -55 -162 -140 9 -32 17 -45 30 -45 10 0 64 15 120 34 262 87 514 150 807
201 160 27 161 27 161 -35 0 -49 18 -295 30 -420 5 -58 15 -168 20 -245 15
-198 80 -848 86 -854 10 -10 90 0 102 13 12 11 9 65 -17 322 -28 282 -38 394
-72 789 -13 158 -36 469 -35 471 1 1 75 9 166 18 228 21 539 30 763 21 l187
-7 0 -52 c0 -63 35 -567 55 -796 51 -570 73 -772 87 -781 10 -7 95 5 105 14 3
4 -2 80 -11 169 -9 90 -26 258 -36 373 -11 116 -24 253 -29 305 -15 140 -55
749 -50 755 7 7 287 -23 469 -50 221 -33 481 -85 727 -145 111 -28 209 -50
217 -50 10 0 17 13 21 38 3 20 8 47 10 58 3 12 -1 27 -8 33 -31 25 -628 158
-882 195 -60 9 -137 21 -170 26 -33 5 -134 17 -225 26 -91 9 -166 18 -168 19
-9 7 -22 598 -21 1000 0 420 11 911 21 921 14 14 603 -67 838 -115 142 -29
529 -122 562 -136 11 -4 21 1 32 17 16 24 25 103 13 114 -23 23 -738 182 -892
199 -33 3 -80 10 -105 15 -39 8 -127 19 -383 46 l-59 6 7 92 c14 181 45 504
65 656 24 191 24 188 3 194 -48 14 -91 17 -97 7z m-203 -1081 l99 0 -6 -52
c-16 -139 -26 -913 -16 -1327 5 -240 12 -461 16 -491 l5 -55 -393 -1 c-285 0
-437 -5 -553 -16 -88 -9 -162 -15 -165 -13 -4 2 -13 136 -21 297 -13 279 -21
1600 -9 1611 3 3 75 13 160 22 191 21 505 35 664 29 66 -2 164 -4 219 -4z" />
    </g>
</svg>